<svg xmlns="http://www.w3.org/2000/svg" viewBox="0 0 1024 1024">
  <defs>
    <linearGradient id="bg" x1="0" y1="0" x2="1" y2="1"><stop stop-color="#0b1020"/><stop offset="1" stop-color="#05070c"/></linearGradient>
    <linearGradient id="ring" x1="0" y1="0" x2="1" y2="1"><stop stop-color="#9b5cff"/><stop offset=".5" stop-color="#4b9cff"/><stop offset="1" stop-color="#7cff5b"/></linearGradient>
    <filter id="glow" x="-30%" y="-30%" width="160%" height="160%"><feGaussianBlur stdDeviation="14" result="b"/><feMerge><feMergeNode in="b"/><feMergeNode in="SourceGraphic"/></feMerge></filter>
  </defs>
  <rect width="1024" height="1024" rx="225" fill="url(#bg)"/>
  <rect x="70" y="70" width="884" height="884" rx="190" fill="none" stroke="url(#ring)" stroke-width="34" filter="url(#glow)"/>
  <path d="M310 330v365c0 83-64 142-151 142-79 0-137-48-137-116 0-73 67-126 157-126 28 0 53 5 74 14V253l421-73v405c0 84-65 143-153 143-80 0-138-48-138-117 0-73 68-126 158-126 29 0 55 5 77 15V310z" transform="translate(130 20) scale(.72)" fill="#9b5cff" opacity=".95"/>
  <text x="590" y="700" text-anchor="middle" font-family="Arial,Helvetica,sans-serif" font-size="420" font-weight="800" fill="#7cff5b" filter="url(#glow)">$</text>
</svg>
